<svg width="15" height="15" fill="none" xmlns="http://www.w3.org/2000/svg"><path d="M6.212 8.79C4.78 7.357 4.457 5.925 4.384 5.352a.514.514 0 01.148-.43L5.69 3.763c.17-.17.2-.436.073-.64L3.918.26a.517.517 0 00-.67-.189L.288 1.466a.514.514 0 00-.285.514C.158 3.454.8 7.077 4.36 10.639c3.561 3.56 7.185 4.203 8.66 4.358a.514.514 0 00.513-.284l1.395-2.961a.517.517 0 00-.188-.67L11.877 9.24a.517.517 0 00-.64.072l-1.158 1.159a.514.514 0 01-.43.147c-.574-.073-2.006-.396-3.437-1.828z" fill="#FEA753"/><path d="M11.897 8.017a.517.517 0 01-.518-.518A3.883 3.883 0 007.5 3.62a.517.517 0 010-1.034 4.919 4.919 0 014.914 4.913.517.517 0 01-.517.518z" fill="#FEA753"/><path d="M14.483 8.017a.517.517 0 01-.518-.518A6.472 6.472 0 007.5 1.034.517.517 0 117.5 0 7.508 7.508 0 0115 7.5a.517.517 0 01-.517.517z" fill="#FEA753"/></svg>