<svg width="219" height="26" fill="none" xmlns="http://www.w3.org/2000/svg"><path d="M7.112 11.377V5.245h-.926v6.132H.13v.787h6.056v6.106h.926v-6.106h6.043v-.787H7.112zm19.59-8.785c-1.69.05-3.352.076-6.209.076-1.726 0-4.481 0-6.347-.076.127 1.155.19 2.348.19 2.907 0 .838-.038 1.562-.089 2.107h.597c.19-1.51.812-2.03 2.221-2.03h7.453c-3.149 4.062-6.995 9.14-6.995 13.863 0 .99.52 1.93 1.878 1.93 1.32 0 1.917-.8 1.917-1.816 0-.635-.101-1.27-.101-2.032-.051-5.776 2.006-9.254 5.484-14.383v-.546zM39.256.04c-4.126 3.047-6.5 7.16-6.5 12.848 0 5.7 2.374 9.8 6.5 12.847l.38-.33c-2.31-3.681-3.287-7.477-3.287-12.517 0-5.04.99-8.912 3.288-12.518l-.381-.33zm8.188 2.184c-3.758 0-6.69 2.107-6.69 6.233 0 3.885 2.615 5.79 5.256 5.79 1.917 0 3.504-.826 4.19-3.238v.355c0 7.516-2.108 9.522-4.304 9.522-.61 0-1.46-.127-1.968-.508 1.066-.343 1.612-1.206 1.612-1.968 0-1.18-.813-1.891-1.968-1.891-1.244 0-2.107.825-2.107 1.967 0 .914.673 1.701 1.434 2.133 1.041.597 2.197.75 3.301.75 4.634 0 7.922-4.076 7.922-10.436 0-5.726-2.463-8.71-6.678-8.71zm-.431 11.336c-1.371 0-2.336-1.51-2.336-5.141 0-4.164 1.18-5.675 2.653-5.675 1.282 0 2.603 1.27 2.831 6.805-.533 3.186-2.184 4.011-3.148 4.011zM62.819 2.338c-1.307.546-3.199 1.168-6.601 1.574v.546c2.221 0 2.856.241 2.856 2.031v11.49c0 2.005-.596 2.45-2.539 2.488V21c.94-.038 2.755-.089 4.469-.089 1.447 0 2.945.05 3.694.089v-.533c-1.46-.038-1.879-.381-1.879-2.019V2.338zM66.35 21c.457-.013.888-.025 1.358-.025.927 0 1.98.025 3.504.025h7.147a35.463 35.463 0 01-.177-3.3c0-.496.025-1.093.076-1.473h-.597c-.178 1.37-.863 1.79-1.764 1.79h-6.348c4.304-4.875 8.366-7.643 8.366-11.325 0-2.92-2.437-4.468-5.65-4.468-1.764 0-3.224.457-4.252 1.32-.724.584-1.333 1.358-1.333 2.272 0 1.003.673 1.892 1.879 1.892 1.066 0 2.018-.686 2.018-1.892 0-.939-.61-1.713-1.676-1.98.381-.66 1.283-1.003 2.171-1.003 1.498 0 2.92.965 2.92 4.215 0 5.32-3.973 10.207-7.642 13.432V21zM79.945.37c2.298 3.606 3.288 7.478 3.288 12.518 0 5.04-.977 8.836-3.288 12.517l.381.33c4.126-3.046 6.5-7.147 6.5-12.847 0-5.688-2.374-9.801-6.5-12.848l-.38.33zm23.157 8.976c-1.714 0-3.377.787-4.076 3.047.026-7.72 2.019-9.687 4.317-9.687.584 0 1.447.127 1.955.508-1.041.343-1.612 1.13-1.612 2.031 0 1.054.774 1.828 1.967 1.828 1.244 0 2.108-.85 2.108-1.955 0-.914-.61-1.65-1.448-2.145-1.053-.635-2.412-.75-3.148-.75-4.875 0-8.062 4.063-8.062 10.512 0 5.65 2.286 8.633 6.767 8.633 3.631 0 6.602-2.107 6.602-6.246 0-3.872-2.577-5.776-5.37-5.776zm-1.156 11.502c-1.358 0-2.716-1.448-2.894-7.008.508-3.034 2.183-3.809 3.161-3.809 1.371 0 2.323 1.498 2.323 5.167 0 4.152-1.206 5.65-2.59 5.65zM116.66 2.224c-1.726 0-3.25.419-4.215 1.168-.787.558-1.333 1.32-1.333 2.247 0 1.04.673 1.904 1.879 1.904 1.067 0 2.019-.698 2.019-1.879 0-.914-.622-1.663-1.676-1.98.444-.635 1.346-.902 2.171-.902 1.663 0 2.666 1.359 2.666 3.77 0 2.07-.736 3.58-2.45 4.393-.254-.025-.457-.076-.686-.076-.457 0-.762.152-.762.457 0 .267.242.406.534.406.381 0 .685-.215 1.104-.47 2.031.191 3.301 1.968 3.301 4.634 0 2.806-1.435 4.952-4.202 4.952-.978 0-1.727-.254-2.031-.508.875-.229 1.561-.863 1.561-1.841 0-1.117-.876-1.828-2.057-1.828-1.256 0-1.993.787-1.993 1.828 0 .762.406 1.473 1.295 2.019.863.495 2.095.85 3.733.85 3.948 0 7.566-1.98 7.566-5.42 0-3.15-3.072-4.812-6.678-4.965 3.111-.698 5.688-2.462 5.688-4.963 0-2.374-2.197-3.796-5.434-3.796zm14.549 0c-1.727 0-3.25.419-4.215 1.168-.787.558-1.333 1.32-1.333 2.247 0 1.04.673 1.904 1.879 1.904 1.066 0 2.019-.698 2.019-1.879 0-.914-.622-1.663-1.676-1.98.444-.635 1.346-.902 2.171-.902 1.663 0 2.666 1.359 2.666 3.77 0 2.07-.737 3.58-2.45 4.393-.254-.025-.458-.076-.686-.076-.457 0-.762.152-.762.457 0 .267.241.406.533.406.381 0 .686-.215 1.105-.47 2.031.191 3.301 1.968 3.301 4.634 0 2.806-1.435 4.952-4.202 4.952-.978 0-1.727-.254-2.032-.508.876-.229 1.562-.863 1.562-1.841 0-1.117-.876-1.828-2.057-1.828-1.257 0-1.993.787-1.993 1.828 0 .762.406 1.473 1.295 2.019.863.495 2.095.85 3.732.85 3.949 0 7.567-1.98 7.567-5.42 0-3.15-3.072-4.812-6.678-4.965 3.11-.698 5.688-2.462 5.688-4.963 0-2.374-2.197-3.796-5.434-3.796zm18.408 12.822v-2.158h-9.382v2.158h9.382zm14.422-12.454c-1.688.05-3.351.076-6.208.076-1.727 0-4.481 0-6.348-.076.127 1.155.191 2.348.191 2.907 0 .838-.038 1.562-.089 2.107h.597c.19-1.51.812-2.03 2.221-2.03h7.452c-3.148 4.062-6.995 9.14-6.995 13.863 0 .99.521 1.93 1.879 1.93 1.321 0 1.917-.8 1.917-1.816 0-.635-.101-1.27-.101-2.032-.051-5.776 2.006-9.254 5.484-14.383v-.546zm8.163-.368c-4.202 0-7.223 3.91-7.223 9.724 0 5.954 2.881 9.42 7.198 9.42 4.215 0 7.236-3.91 7.236-9.724 0-5.955-2.894-9.42-7.211-9.42zm-.101.47c2.044 0 3.3 2.995 3.3 9.051 0 5.903-1.003 9.153-3.123 9.153-2.044 0-3.3-2.996-3.3-9.051 0-5.904 1.015-9.154 3.123-9.154zm19.538 12.352v-2.158h-9.382v2.158h9.382zm14.422-12.454c-1.689.05-3.352.076-6.208.076-1.727 0-4.482 0-6.348-.076.127 1.155.19 2.348.19 2.907 0 .838-.038 1.562-.089 2.107h.597c.191-1.51.813-2.03 2.222-2.03h7.452c-3.148 4.062-6.995 9.14-6.995 13.863 0 .99.52 1.93 1.879 1.93 1.32 0 1.917-.8 1.917-1.816 0-.635-.102-1.27-.102-2.032-.051-5.776 2.006-9.254 5.485-14.383v-.546zM206.759 21c.457-.013.888-.025 1.358-.025.927 0 1.981.025 3.504.025h7.148a35.478 35.478 0 01-.178-3.3c0-.496.025-1.093.076-1.473h-.597c-.177 1.37-.863 1.79-1.764 1.79h-6.348c4.304-4.875 8.366-7.643 8.366-11.325 0-2.92-2.437-4.468-5.649-4.468-1.765 0-3.225.457-4.253 1.32-.724.584-1.333 1.358-1.333 2.272 0 1.003.673 1.892 1.879 1.892 1.066 0 2.018-.686 2.018-1.892 0-.939-.609-1.713-1.675-1.98.38-.66 1.282-1.003 2.17-1.003 1.498 0 2.92.965 2.92 4.215 0 5.32-3.973 10.207-7.642 13.432V21z" fill="#FEFEFE"/></svg>