<svg width="57" height="62" fill="none" xmlns="http://www.w3.org/2000/svg"><path d="M12.304 10.251c-3.676-1.145-6.66-.853-7.74-.178a1.03 1.03 0 00-.368.439c-.762 1.57-1.827 5.38-.843 10.054.946 4.494 5.896 7.72 8.918 9.092.541.246 1.166.2 1.674-.11 2.917-1.776 7.787-5.424 8.973-8.982 1.18-3.539.492-7.578-.132-9.63-.117-.382-.36-.721-.72-.894-1.109-.53-2.465-.442-4.232.002-2.377.598-4.724.459-5.53.207z" fill="#FEFEFE"/><path d="M2.304 61h21.522c-3.043-.87-9.13-3.848-9.13-8.804V31.978c3.587-1.956 9.456-5.87 10.435-12.065C25.905 15.01 23.934 5.239 23.5 1" stroke="#FEFEFE"/><path d="M24.004 61H2.483c3.043-.87 9.13-3.848 9.13-8.804V31.978c-3.587-1.956-9.456-5.87-10.435-12.065C.404 15.01 2.374 5.239 2.808 1" stroke="#FEFEFE"/><path d="M55.557 32.09a3.59 3.59 0 01-.394-.497c-.063-.108-.1-.327-.137-.54-.075-.445-.169-.998-.61-1.353-.343-.277-.807-.286-1.216-.293-.28-.006-.568-.012-.745-.1-.134-.067-.29-.277-.442-.48-.254-.342-.543-.73-1.004-.87-.461-.14-.916.021-1.318.163-.239.085-.486.172-.635.154-.196-.025-.44-.181-.674-.332-.345-.221-.734-.472-1.174-.433-.563.049-.95.457-1.26.784-.148.157-.301.319-.414.372-.166.08-.388.138-.603.195-.415.108-.913.239-1.18.605a2.78 2.78 0 00-.878-.004 2.234 2.234 0 00-.584-.807c-.506-.433-1.075-.608-1.643-.505-.496.089-.928.378-1.271.698a9.332 9.332 0 00-.066-1.061.446.446 0 10-.883.12c.004.03.389 3.012-.91 5.039a3.433 3.433 0 00-2.348.469 3.296 3.296 0 00-1.873-1.31 3.326 3.326 0 00-4.142 2.768 3.48 3.48 0 00-2.132 1.184.445.445 0 10.68.577 2.588 2.588 0 012.624-.825 2.56 2.56 0 011.365.899 3.439 3.439 0 00-1.177 1.813 3.495 3.495 0 00-.117.856 3.465 3.465 0 00-2.128 1.082 2.563 2.563 0 01-1.158-2.465.445.445 0 10-.885-.106 3.451 3.451 0 001.525 3.297 3.463 3.463 0 00-.294.746 3.44 3.44 0 00.888 3.326 3.438 3.438 0 00-.6 2.273c.029.322.102.633.213.927a3.09 3.09 0 00-1.31 2.8c.05.561.249 1.09.578 1.54a3.057 3.057 0 00-.347 1.715c.073.82.46 1.56 1.09 2.089a3.054 3.054 0 002.248.706 3.058 3.058 0 002.693-2.238 3.087 3.087 0 00.688.016 3.058 3.058 0 002.088-1.09c.477-.57.727-1.277.717-2.012a3.442 3.442 0 001.545-1.058 3.44 3.44 0 00.804-2.385 3.128 3.128 0 002.937-3.302 3.116 3.116 0 00.617.007 3.128 3.128 0 002.837-3.388 3.131 3.131 0 00-.983-2.01c.353-.396.62-.875.762-1.41a3.456 3.456 0 00-.276-2.487.446.446 0 00-.79.411c.296.57.369 1.226.204 1.847a2.586 2.586 0 01-2.487 1.916h-.006a3.465 3.465 0 00-.416-1.125 3.442 3.442 0 00-2.11-1.608l-.038-.01a2.557 2.557 0 011.275-2.057 2.557 2.557 0 012.469-.065.446.446 0 00.406-.794 3.488 3.488 0 00-.694-.265 3.44 3.44 0 00-2.554.313 3.48 3.48 0 00-1.505-1.305c.523-.905.777-1.926.892-2.836l.003-.006c.184-.33.812-1.214 1.51-1.34.304-.054.601.046.906.306.116.1.218.236.301.399-.905.431-1.573 1.251-1.738 1.946-.175.742.188 1.346.924 1.538.11.028.218.042.324.042.506 0 .964-.317 1.265-.894.293-.56.415-1.317.323-2.031.168-.017.341-.012.514.018.11.331.367.622.59.874.146.166.299.338.393.497.063.107.1.327.136.54.076.444.17.998.61 1.353.344.276.807.285 1.216.293.28.006.57.011.745.1.135.067.291.277.443.48.254.342.543.73 1.004.87.461.14.916-.022 1.318-.164.239-.084.486-.172.635-.153.195.025.439.181.674.332.32.206.68.437 1.083.437.03 0 .06-.001.09-.004.564-.05.95-.457 1.26-.785.149-.156.302-.318.414-.372.167-.08.39-.138.604-.194.508-.133 1.14-.298 1.32-.89.18-.591-.253-1.08-.601-1.473zm-25.004 2.856a3.432 3.432 0 00-.494-.092 2.433 2.433 0 013.008-1.888 2.415 2.415 0 011.479 1.127 2.415 2.415 0 01.212 1.967l-.009-.003a3.438 3.438 0 00-2.295.184 3.445 3.445 0 00-1.901-1.295zm.821 3.802c.176-.665.6-1.22 1.195-1.566a2.557 2.557 0 011.952-.264c.628.167 1.154.55 1.501 1.09a3.438 3.438 0 00-1.218 1.845 3.48 3.48 0 00-.113.76 3.453 3.453 0 00-2.353.868 2.564 2.564 0 01-.964-2.733zm3.485 7.894a2.53 2.53 0 01-.246.01 3.438 3.438 0 00-1.193-2.085 3.452 3.452 0 00-1.354-.7 2.592 2.592 0 012.338-2.353 2.558 2.558 0 011.88.59 2.577 2.577 0 01-1.425 4.538zm-3.436 3.145a2.558 2.558 0 01-1.88-.59 2.558 2.558 0 01-.911-1.746 2.557 2.557 0 01.59-1.88 2.557 2.557 0 011.978-.922c.603 0 1.18.21 1.648.601a2.56 2.56 0 01.912 1.746 2.557 2.557 0 01-.59 1.88 2.556 2.556 0 01-1.747.912zm-3.106-7.63a2.576 2.576 0 012.184-1.897 3.448 3.448 0 001.25 1.894 3.453 3.453 0 00-.569 1.605 3.439 3.439 0 00-2.24.832 2.554 2.554 0 01-.625-2.433zm.066 7.092a3.488 3.488 0 002.193 1.385c-.09.179-.163.365-.216.557a3.055 3.055 0 00-2.564.844 2.176 2.176 0 01-.261-.858 2.195 2.195 0 01.848-1.928zm1.754 7.169a2.174 2.174 0 01-1.597-.502 2.173 2.173 0 01-.774-1.483 2.173 2.173 0 01.502-1.597 2.173 2.173 0 011.98-.761 3.058 3.058 0 001.1 2.303c.218.181.454.33.705.443a2.203 2.203 0 01-1.916 1.597zm4.865-2.996a2.173 2.173 0 01-1.484.774 2.173 2.173 0 01-1.597-.502 2.172 2.172 0 01-.774-1.483c-.05-.56.115-1.108.463-1.548a3.5 3.5 0 00.72-.164 3.493 3.493 0 003.178 1.658 2.17 2.17 0 01-.506 1.265zm2.262-3.07a2.557 2.557 0 01-1.747.911A2.592 2.592 0 0133.13 50.1c.267-.18.51-.398.723-.652a3.44 3.44 0 00.793-1.905 3.446 3.446 0 002.255-.85c.542.437.891 1.08.953 1.78a2.561 2.561 0 01-.59 1.879zm1.502-2.706a2.264 2.264 0 01-.174.008 3.487 3.487 0 00-1.098-1.626 3.45 3.45 0 00.6-1.825l.062.002a3.45 3.45 0 001.818-.52c.47.38.766.93.82 1.538a2.237 2.237 0 01-2.028 2.423zm3.46-3.29c-.25.023-.499.003-.74-.057a3.1 3.1 0 00-.81-1.186 3.448 3.448 0 00.932-2.1 3.455 3.455 0 001.872-.578c.442.378.722.917.774 1.5a2.236 2.236 0 01-2.028 2.422zm-1.846-4.91c.345.594.438 1.287.263 1.952a2.581 2.581 0 01-2.632 1.912h-.001a3.438 3.438 0 00-1.154-1.889 3.455 3.455 0 00-1.276-.676 2.58 2.58 0 011.28-2.23 2.557 2.557 0 011.953-.264c.665.176 1.22.6 1.566 1.195zm-1.197-4.41a3.442 3.442 0 00-1.066 2.238 3.43 3.43 0 00-1.327.28 3.483 3.483 0 00-1.207-1.153 3.298 3.298 0 00-.006-2.191 2.556 2.556 0 012.061-.331c.645.17 1.2.59 1.545 1.158zm2.813-3.086c-.168.322-.36.457-.574.401-.228-.06-.355-.159-.281-.47.104-.443.535-.96 1.107-1.273.036.444-.034.925-.252 1.342zm13.31 1.354c-.036.115-.431.218-.693.287-.256.067-.52.136-.763.252-.261.125-.472.348-.676.563-.228.241-.464.49-.691.51-.136.012-.39-.15-.614-.295-.304-.195-.649-.416-1.044-.466a1.236 1.236 0 00-.156-.01c-.304 0-.6.105-.888.207-.286.101-.581.206-.762.15-.18-.054-.368-.305-.549-.548-.213-.287-.434-.583-.757-.745-.357-.179-.766-.187-1.127-.194-.267-.005-.568-.01-.675-.096-.177-.143-.234-.481-.29-.809-.05-.292-.1-.595-.248-.844a4.241 4.241 0 00-.532-.677l5.445 1.655a.447.447 0 00.556-.297.445.445 0 00-.297-.555L45.1 29.736l.056-.014c.256-.067.52-.136.763-.253.261-.125.472-.347.676-.563.228-.24.464-.49.691-.51.136-.012.39.151.614.295.304.196.649.417 1.044.467.36.045.707-.078 1.044-.198.286-.1.581-.205.762-.15.18.055.368.306.549.549.213.286.434.583.757.745.357.178.766.187 1.127.194.267.005.568.01.675.096.177.143.234.481.29.808.05.293.1.595.248.844.137.233.319.437.494.635.179.202.45.509.415.623z" fill="#FEFEFE"/></svg>