<svg width="15" height="15" viewBox="0 0 15 15" fill="none" xmlns="http://www.w3.org/2000/svg">
<path d="M6.2118 8.78933C4.78016 7.35771 4.45691 5.92608 4.38398 5.3525C4.3636 5.1939 4.41818 5.03486 4.53164 4.92219L5.6902 3.76416C5.86062 3.59385 5.89086 3.32841 5.76312 3.12412L3.91849 0.259842C3.77717 0.0336296 3.48699 -0.0480129 3.24844 0.0713212L0.287154 1.46596C0.0942498 1.56095 -0.019214 1.76591 0.0026882 1.97981C0.157851 3.45384 0.800486 7.07738 4.36148 10.6386C7.92248 14.1998 11.5455 14.8422 13.0204 14.9973C13.2343 15.0192 13.4392 14.9058 13.5342 14.7129L14.9289 11.7516C15.0478 11.5136 14.9667 11.2242 14.7414 11.0826L11.8771 9.23852C11.6729 9.11065 11.4075 9.14067 11.237 9.31093L10.079 10.4695C9.96632 10.5829 9.80727 10.6375 9.64867 10.6171C9.07508 10.5442 7.64344 10.221 6.2118 8.78933Z" fill="#FEA753"/>
<path d="M11.8966 8.01659C11.611 8.01659 11.3794 7.78503 11.3794 7.49939C11.377 5.35806 9.64171 3.62277 7.50036 3.62035C7.21472 3.62035 6.98315 3.38879 6.98315 3.10314C6.98315 2.8175 7.21472 2.58594 7.50036 2.58594C10.2128 2.58893 12.4109 4.787 12.4138 7.49939C12.4138 7.78503 12.1823 8.01659 11.8966 8.01659Z" fill="#FEA753"/>
<path d="M14.4827 8.01667C14.1971 8.01667 13.9655 7.78511 13.9655 7.49947C13.9615 3.93057 11.0693 1.0384 7.50037 1.03441C7.21472 1.03441 6.98315 0.802849 6.98315 0.517205C6.98315 0.23156 7.21472 0 7.50037 0C11.6404 0.00456068 14.9954 3.35952 15 7.49947C15 7.63664 14.9455 7.76819 14.8485 7.86519C14.7515 7.96218 14.6199 8.01667 14.4827 8.01667Z" fill="#FEA753"/>
</svg>
