<svg width="20" height="22" viewBox="0 0 20 22" fill="none" xmlns="http://www.w3.org/2000/svg">
<circle cx="10" cy="10" r="10" fill="#333333"/>
<path d="M10.6762 6.67C10.4895 6.85667 10.2655 6.95 10.0042 6.95C9.74288 6.95 9.51421 6.85667 9.31821 6.67C9.13154 6.474 9.03821 6.24533 9.03821 5.984C9.03821 5.72267 9.13154 5.49867 9.31821 5.312C9.50488 5.116 9.73354 5.018 10.0042 5.018C10.2749 5.018 10.5035 5.116 10.6902 5.312C10.8769 5.49867 10.9702 5.72267 10.9702 5.984C10.9702 6.24533 10.8722 6.474 10.6762 6.67ZM10.7602 15H9.24821V8H10.7602V15Z" fill="#FEFEFE"/>
</svg>
