<svg width="219" height="26" viewBox="0 0 219 26" fill="none" xmlns="http://www.w3.org/2000/svg">
<path d="M7.1123 11.377V5.24512H6.18555V11.377H0.129883V12.1641H6.18555V18.2705H7.1123V12.1641H13.1553V11.377H7.1123ZM26.7012 2.5918C25.0127 2.64258 23.3496 2.66797 20.4932 2.66797C18.7666 2.66797 16.0117 2.66797 14.1455 2.5918C14.2725 3.74707 14.3359 4.94043 14.3359 5.49902C14.3359 6.33691 14.2979 7.06055 14.2471 7.60645H14.8438C15.0342 6.0957 15.6562 5.5752 17.0654 5.5752H24.5176C21.3691 9.6377 17.5225 14.7158 17.5225 19.4385C17.5225 20.4287 18.043 21.3682 19.4014 21.3682C20.7217 21.3682 21.3184 20.5684 21.3184 19.5527C21.3184 18.918 21.2168 18.2832 21.2168 17.5215C21.166 11.7451 23.2227 8.2666 26.7012 3.1377V2.5918ZM39.2568 0.0400391C35.1309 3.08691 32.7568 7.2002 32.7568 12.8877C32.7568 18.5879 35.1309 22.6885 39.2568 25.7354L39.6377 25.4053C37.3271 21.7236 36.3496 17.9277 36.3496 12.8877C36.3496 7.84766 37.3398 3.97559 39.6377 0.370117L39.2568 0.0400391ZM47.4453 2.22363C43.6875 2.22363 40.7549 4.33105 40.7549 8.45703C40.7549 12.3418 43.3701 14.2461 46.0107 14.2461C47.9277 14.2461 49.5146 13.4209 50.2002 11.0088V11.3643C50.2002 18.8799 48.0928 20.8857 45.8965 20.8857C45.2871 20.8857 44.4365 20.7588 43.9287 20.3779C44.9951 20.0352 45.541 19.1719 45.541 18.4102C45.541 17.2295 44.7285 16.5186 43.5732 16.5186C42.3291 16.5186 41.4658 17.3438 41.4658 18.4863C41.4658 19.4004 42.1387 20.1875 42.9004 20.6191C43.9414 21.2158 45.0967 21.3682 46.2012 21.3682C50.835 21.3682 54.123 17.293 54.123 10.9326C54.123 5.20703 51.6602 2.22363 47.4453 2.22363ZM47.0137 13.5605C45.6426 13.5605 44.6777 12.0498 44.6777 8.41895C44.6777 4.25488 45.8584 2.74414 47.3311 2.74414C48.6133 2.74414 49.9336 4.01367 50.1621 9.54883C49.6289 12.7354 47.9785 13.5605 47.0137 13.5605ZM62.8193 2.33789C61.5117 2.88379 59.6201 3.50586 56.2178 3.91211V4.45801C58.4395 4.45801 59.0742 4.69922 59.0742 6.48926V17.9785C59.0742 19.9844 58.4775 20.4287 56.5352 20.4668V21C57.4746 20.9619 59.29 20.9111 61.0039 20.9111C62.4512 20.9111 63.9492 20.9619 64.6982 21V20.4668C63.2383 20.4287 62.8193 20.0859 62.8193 18.4482V2.33789ZM66.3486 21C66.8057 20.9873 67.2373 20.9746 67.707 20.9746C68.6338 20.9746 69.6875 21 71.2109 21H78.3584C78.2314 19.7559 78.1807 18.4736 78.1807 17.6992C78.1807 17.2041 78.2061 16.6074 78.2568 16.2266H77.6602C77.4824 17.5977 76.7969 18.0166 75.8955 18.0166H69.5479C73.8516 13.1416 77.9141 10.374 77.9141 6.69238C77.9141 3.77246 75.4766 2.22363 72.2646 2.22363C70.5 2.22363 69.04 2.68066 68.0117 3.54395C67.2881 4.12793 66.6787 4.90234 66.6787 5.81641C66.6787 6.81934 67.3516 7.70801 68.5576 7.70801C69.624 7.70801 70.5762 7.02246 70.5762 5.81641C70.5762 4.87695 69.9668 4.10254 68.9004 3.83594C69.2812 3.17578 70.1826 2.83301 71.0713 2.83301C72.5693 2.83301 73.9912 3.79785 73.9912 7.04785C73.9912 12.3672 70.0176 17.2549 66.3486 20.4795V21ZM79.9453 0.370117C82.2432 3.97559 83.2334 7.84766 83.2334 12.8877C83.2334 17.9277 82.2559 21.7236 79.9453 25.4053L80.3262 25.7354C84.4521 22.6885 86.8262 18.5879 86.8262 12.8877C86.8262 7.2002 84.4521 3.08691 80.3262 0.0400391L79.9453 0.370117ZM103.102 9.3457C101.388 9.3457 99.7246 10.1328 99.0264 12.3926C99.0518 4.67383 101.045 2.70605 103.343 2.70605C103.927 2.70605 104.79 2.83301 105.298 3.21387C104.257 3.55664 103.686 4.34375 103.686 5.24512C103.686 6.29883 104.46 7.07324 105.653 7.07324C106.897 7.07324 107.761 6.22266 107.761 5.11816C107.761 4.2041 107.151 3.46777 106.313 2.97266C105.26 2.33789 103.901 2.22363 103.165 2.22363C98.29 2.22363 95.1035 6.28613 95.1035 12.7354C95.1035 18.3848 97.3887 21.3682 101.87 21.3682C105.501 21.3682 108.472 19.2607 108.472 15.1221C108.472 11.25 105.895 9.3457 103.102 9.3457ZM101.946 20.8477C100.588 20.8477 99.2295 19.4004 99.0518 13.8398C99.5596 10.8057 101.235 10.0312 102.213 10.0312C103.584 10.0312 104.536 11.5293 104.536 15.1982C104.536 19.3496 103.33 20.8477 101.946 20.8477ZM116.66 2.22363C114.934 2.22363 113.41 2.64258 112.445 3.3916C111.658 3.9502 111.112 4.71191 111.112 5.63867C111.112 6.67969 111.785 7.54297 112.991 7.54297C114.058 7.54297 115.01 6.84473 115.01 5.66406C115.01 4.75 114.388 4.00098 113.334 3.68359C113.778 3.04883 114.68 2.78223 115.505 2.78223C117.168 2.78223 118.171 4.14062 118.171 6.55273C118.171 8.62207 117.435 10.1328 115.721 10.9453C115.467 10.9199 115.264 10.8691 115.035 10.8691C114.578 10.8691 114.273 11.0215 114.273 11.3262C114.273 11.5928 114.515 11.7324 114.807 11.7324C115.188 11.7324 115.492 11.5166 115.911 11.2627C117.942 11.4531 119.212 13.2305 119.212 15.8965C119.212 18.7021 117.777 20.8477 115.01 20.8477C114.032 20.8477 113.283 20.5938 112.979 20.3398C113.854 20.1113 114.54 19.4766 114.54 18.499C114.54 17.3818 113.664 16.6709 112.483 16.6709C111.227 16.6709 110.49 17.458 110.49 18.499C110.49 19.2607 110.896 19.9717 111.785 20.5176C112.648 21.0127 113.88 21.3682 115.518 21.3682C119.466 21.3682 123.084 19.3877 123.084 15.9473C123.084 12.7988 120.012 11.1357 116.406 10.9834C119.517 10.2852 122.094 8.52051 122.094 6.01953C122.094 3.64551 119.897 2.22363 116.66 2.22363ZM131.209 2.22363C129.482 2.22363 127.959 2.64258 126.994 3.3916C126.207 3.9502 125.661 4.71191 125.661 5.63867C125.661 6.67969 126.334 7.54297 127.54 7.54297C128.606 7.54297 129.559 6.84473 129.559 5.66406C129.559 4.75 128.937 4.00098 127.883 3.68359C128.327 3.04883 129.229 2.78223 130.054 2.78223C131.717 2.78223 132.72 4.14062 132.72 6.55273C132.72 8.62207 131.983 10.1328 130.27 10.9453C130.016 10.9199 129.812 10.8691 129.584 10.8691C129.127 10.8691 128.822 11.0215 128.822 11.3262C128.822 11.5928 129.063 11.7324 129.355 11.7324C129.736 11.7324 130.041 11.5166 130.46 11.2627C132.491 11.4531 133.761 13.2305 133.761 15.8965C133.761 18.7021 132.326 20.8477 129.559 20.8477C128.581 20.8477 127.832 20.5938 127.527 20.3398C128.403 20.1113 129.089 19.4766 129.089 18.499C129.089 17.3818 128.213 16.6709 127.032 16.6709C125.775 16.6709 125.039 17.458 125.039 18.499C125.039 19.2607 125.445 19.9717 126.334 20.5176C127.197 21.0127 128.429 21.3682 130.066 21.3682C134.015 21.3682 137.633 19.3877 137.633 15.9473C137.633 12.7988 134.561 11.1357 130.955 10.9834C134.065 10.2852 136.643 8.52051 136.643 6.01953C136.643 3.64551 134.446 2.22363 131.209 2.22363ZM149.617 15.0459V12.8877H140.235V15.0459H149.617ZM164.039 2.5918C162.351 2.64258 160.688 2.66797 157.831 2.66797C156.104 2.66797 153.35 2.66797 151.483 2.5918C151.61 3.74707 151.674 4.94043 151.674 5.49902C151.674 6.33691 151.636 7.06055 151.585 7.60645H152.182C152.372 6.0957 152.994 5.5752 154.403 5.5752H161.855C158.707 9.6377 154.86 14.7158 154.86 19.4385C154.86 20.4287 155.381 21.3682 156.739 21.3682C158.06 21.3682 158.656 20.5684 158.656 19.5527C158.656 18.918 158.555 18.2832 158.555 17.5215C158.504 11.7451 160.561 8.2666 164.039 3.1377V2.5918ZM172.202 2.22363C168 2.22363 164.979 6.13379 164.979 11.9482C164.979 17.9023 167.86 21.3682 172.177 21.3682C176.392 21.3682 179.413 17.458 179.413 11.6436C179.413 5.68945 176.519 2.22363 172.202 2.22363ZM172.101 2.69336C174.145 2.69336 175.401 5.68945 175.401 11.7451C175.401 17.6484 174.398 20.8984 172.278 20.8984C170.234 20.8984 168.978 17.9023 168.978 11.8467C168.978 5.94336 169.993 2.69336 172.101 2.69336ZM191.639 15.0459V12.8877H182.257V15.0459H191.639ZM206.061 2.5918C204.372 2.64258 202.709 2.66797 199.853 2.66797C198.126 2.66797 195.371 2.66797 193.505 2.5918C193.632 3.74707 193.695 4.94043 193.695 5.49902C193.695 6.33691 193.657 7.06055 193.606 7.60645H194.203C194.394 6.0957 195.016 5.5752 196.425 5.5752H203.877C200.729 9.6377 196.882 14.7158 196.882 19.4385C196.882 20.4287 197.402 21.3682 198.761 21.3682C200.081 21.3682 200.678 20.5684 200.678 19.5527C200.678 18.918 200.576 18.2832 200.576 17.5215C200.525 11.7451 202.582 8.2666 206.061 3.1377V2.5918ZM206.759 21C207.216 20.9873 207.647 20.9746 208.117 20.9746C209.044 20.9746 210.098 21 211.621 21H218.769C218.642 19.7559 218.591 18.4736 218.591 17.6992C218.591 17.2041 218.616 16.6074 218.667 16.2266H218.07C217.893 17.5977 217.207 18.0166 216.306 18.0166H209.958C214.262 13.1416 218.324 10.374 218.324 6.69238C218.324 3.77246 215.887 2.22363 212.675 2.22363C210.91 2.22363 209.45 2.68066 208.422 3.54395C207.698 4.12793 207.089 4.90234 207.089 5.81641C207.089 6.81934 207.762 7.70801 208.968 7.70801C210.034 7.70801 210.986 7.02246 210.986 5.81641C210.986 4.87695 210.377 4.10254 209.311 3.83594C209.691 3.17578 210.593 2.83301 211.481 2.83301C212.979 2.83301 214.401 3.79785 214.401 7.04785C214.401 12.3672 210.428 17.2549 206.759 20.4795V21Z" fill="#FEFEFE"/>
</svg>
