<svg width="219" height="26" viewBox="0 0 219 26" fill="none" xmlns="http://www.w3.org/2000/svg">
<path d="M7.10773 11.38H13.1397V12.16H7.10773V18.27H6.17173V12.16H0.113734V11.38H6.17173V5.244H7.10773V11.38ZM26.706 3.138C25.354 5.114 24.3054 6.78667 23.56 8.156C22.8147 9.52533 22.234 10.964 21.818 12.472C21.402 13.98 21.2027 15.6613 21.22 17.516C21.22 17.8107 21.2374 18.1833 21.272 18.634C21.3067 19.05 21.324 19.3533 21.324 19.544C21.324 20.0813 21.1594 20.5233 20.83 20.87C20.518 21.1993 20.0414 21.364 19.4 21.364C18.776 21.364 18.308 21.182 17.996 20.818C17.684 20.454 17.528 19.9947 17.528 19.44C17.528 17.984 17.866 16.4673 18.542 14.89C19.218 13.2953 20.0327 11.7873 20.986 10.366C21.9567 8.94467 23.1354 7.35 24.522 5.582H17.06C16.3494 5.582 15.8207 5.738 15.474 6.05C15.1447 6.34467 14.9367 6.86467 14.85 7.61H14.252C14.304 7.05533 14.33 6.35333 14.33 5.504C14.33 4.65467 14.2694 3.684 14.148 2.592C15.396 2.644 17.5107 2.67 20.492 2.67C22.9534 2.67 25.0247 2.644 26.706 2.592V3.138ZM39.2655 0.0439986C37.1335 1.604 35.5128 3.44133 34.4035 5.556C33.3115 7.67067 32.7655 10.1147 32.7655 12.888C32.7655 15.6613 33.3115 18.1053 34.4035 20.22C35.5128 22.3347 37.1335 24.172 39.2655 25.732L39.6555 25.42C38.4941 23.5827 37.6535 21.676 37.1335 19.7C36.6135 17.7067 36.3535 15.436 36.3535 12.888C36.3535 10.3573 36.6135 8.08667 37.1335 6.076C37.6708 4.06533 38.5115 2.15867 39.6555 0.355999L39.2655 0.0439986ZM47.4758 2.228C49.6078 2.228 51.2544 2.97333 52.4158 4.464C53.5771 5.95467 54.1578 8.11267 54.1578 10.938C54.1578 13.018 53.8198 14.8467 53.1438 16.424C52.4678 18.0013 51.5318 19.2233 50.3358 20.09C49.1398 20.9393 47.7704 21.364 46.2278 21.364C44.8931 21.364 43.7924 21.1127 42.9258 20.61C42.5098 20.3847 42.1631 20.09 41.8858 19.726C41.6258 19.3447 41.4958 18.9287 41.4958 18.478C41.4958 17.906 41.6864 17.438 42.0678 17.074C42.4664 16.71 42.9778 16.528 43.6018 16.528C44.1911 16.528 44.6591 16.7013 45.0058 17.048C45.3698 17.3773 45.5518 17.828 45.5518 18.4C45.5518 18.816 45.4131 19.2147 45.1358 19.596C44.8584 19.96 44.4598 20.22 43.9398 20.376C44.1824 20.5493 44.4858 20.6793 44.8498 20.766C45.2138 20.8527 45.5691 20.896 45.9158 20.896C47.1811 20.896 48.2124 20.1767 49.0098 18.738C49.8244 17.282 50.2318 14.8293 50.2318 11.38V11.016C49.6078 13.1653 48.2124 14.24 46.0458 14.24C45.1271 14.24 44.2691 14.0233 43.4718 13.59C42.6744 13.1567 42.0244 12.5067 41.5218 11.64C41.0364 10.756 40.7938 9.69867 40.7938 8.468C40.7938 7.13333 41.0798 5.998 41.6518 5.062C42.2411 4.126 43.0384 3.424 44.0438 2.956C45.0491 2.47067 46.1931 2.228 47.4758 2.228ZM47.0338 13.564C47.6578 13.564 48.2818 13.252 48.9058 12.628C49.5298 12.004 49.9631 10.9813 50.2058 9.56C50.0151 5.01867 49.0618 2.748 47.3458 2.748C46.5484 2.748 45.9071 3.20733 45.4218 4.126C44.9538 5.02733 44.7198 6.45733 44.7198 8.416C44.7198 10.1667 44.9191 11.4667 45.3178 12.316C45.7338 13.148 46.3058 13.564 47.0338 13.564ZM62.8534 18.452C62.8534 19.0067 62.9054 19.4227 63.0094 19.7C63.1307 19.9773 63.3214 20.168 63.5814 20.272C63.8414 20.376 64.2227 20.4367 64.7254 20.454V21L64.1274 20.974C62.5154 20.922 61.484 20.896 61.0334 20.896C60.548 20.896 59.3174 20.922 57.3414 20.974L56.5614 21V20.454C57.2374 20.4367 57.7487 20.3673 58.0954 20.246C58.4594 20.1073 58.7194 19.8647 58.8754 19.518C59.0314 19.1713 59.1094 18.66 59.1094 17.984V6.492C59.1094 5.88533 59.0227 5.44333 58.8494 5.166C58.6934 4.88867 58.416 4.70667 58.0174 4.62C57.636 4.516 57.0467 4.464 56.2494 4.464V3.918C57.792 3.72733 59.0747 3.502 60.0974 3.242C61.12 2.96467 62.0387 2.66133 62.8534 2.332V18.452ZM72.2562 2.228C73.9202 2.228 75.2809 2.618 76.3382 3.398C77.3956 4.178 77.9242 5.27867 77.9242 6.7C77.9242 7.54933 77.7162 8.38133 77.3002 9.196C76.8842 9.99333 76.3469 10.7733 75.6882 11.536C75.0296 12.2813 74.1022 13.252 72.9062 14.448C72.6289 14.7427 72.1436 15.2453 71.4502 15.956C70.7569 16.6667 70.1242 17.3513 69.5522 18.01H75.8962C76.3816 18.01 76.7716 17.88 77.0662 17.62C77.3782 17.3427 77.5776 16.8747 77.6642 16.216H78.2622C78.2102 16.5973 78.1842 17.0913 78.1842 17.698C78.1842 18.738 78.2449 19.8387 78.3662 21H71.2162L67.7062 20.974C67.0996 20.974 66.6489 20.9827 66.3542 21V20.48C68.5209 18.5733 70.3322 16.4673 71.7882 14.162C73.2616 11.8393 73.9982 9.46467 73.9982 7.038C73.9982 5.53 73.7209 4.45533 73.1662 3.814C72.6116 3.15533 71.9096 2.826 71.0602 2.826C70.6096 2.826 70.1762 2.92133 69.7602 3.112C69.3616 3.28533 69.0756 3.528 68.9022 3.84C69.4222 3.96133 69.8296 4.204 70.1242 4.568C70.4189 4.932 70.5662 5.348 70.5662 5.816C70.5662 6.388 70.3669 6.84733 69.9682 7.194C69.5869 7.54067 69.1189 7.714 68.5642 7.714C67.9749 7.714 67.5069 7.532 67.1602 7.168C66.8309 6.78667 66.6662 6.336 66.6662 5.816C66.6662 5.01867 67.1169 4.26467 68.0182 3.554C68.5209 3.12067 69.1362 2.79133 69.8642 2.566C70.5922 2.34067 71.3896 2.228 72.2562 2.228ZM80.3209 0.0439986C82.4529 1.604 84.0649 3.44133 85.1569 5.556C86.2662 7.67067 86.8209 10.1147 86.8209 12.888C86.8209 15.6613 86.2662 18.1053 85.1569 20.22C84.0649 22.3347 82.4529 24.172 80.3209 25.732L79.9309 25.42C81.0922 23.5827 81.9329 21.676 82.4529 19.7C82.9729 17.7067 83.2329 15.436 83.2329 12.888C83.2329 10.3573 82.9642 8.08667 82.4269 6.076C81.9069 4.06533 81.0749 2.15867 79.9309 0.355999L80.3209 0.0439986ZM103.091 9.352C104.061 9.352 104.954 9.56867 105.769 10.002C106.583 10.4353 107.233 11.0853 107.719 11.952C108.221 12.8187 108.473 13.876 108.473 15.124C108.473 16.4587 108.178 17.594 107.589 18.53C107.017 19.466 106.228 20.1767 105.223 20.662C104.235 21.13 103.117 21.364 101.869 21.364C99.6326 21.364 97.9426 20.636 96.7986 19.18C95.6719 17.7067 95.1086 15.5573 95.1086 12.732C95.1086 10.6 95.4379 8.74533 96.0966 7.168C96.7726 5.59067 97.7173 4.37733 98.9306 3.528C100.144 2.66133 101.557 2.228 103.169 2.228C104.469 2.228 105.517 2.47933 106.315 2.982C106.748 3.242 107.095 3.554 107.355 3.918C107.615 4.282 107.745 4.68067 107.745 5.114C107.745 5.66867 107.545 6.13667 107.147 6.518C106.765 6.882 106.271 7.064 105.665 7.064C105.075 7.064 104.599 6.89933 104.235 6.57C103.871 6.22333 103.689 5.78133 103.689 5.244C103.689 4.776 103.827 4.36867 104.105 4.022C104.382 3.658 104.781 3.38933 105.301 3.216C105.058 3.04267 104.755 2.91267 104.391 2.826C104.027 2.73933 103.68 2.696 103.351 2.696C102.051 2.696 101.011 3.424 100.231 4.88C99.4506 6.31867 99.0519 8.81467 99.0346 12.368C99.3639 11.3107 99.8926 10.548 100.621 10.08C101.349 9.59467 102.172 9.352 103.091 9.352ZM101.947 20.844C102.709 20.844 103.333 20.3933 103.819 19.492C104.304 18.5733 104.547 17.1433 104.547 15.202C104.547 13.434 104.339 12.134 103.923 11.302C103.507 10.4527 102.935 10.028 102.207 10.028C101.583 10.028 100.959 10.3227 100.335 10.912C99.7106 11.5013 99.2859 12.472 99.0606 13.824C99.1473 16.3893 99.4506 18.2007 99.9706 19.258C100.508 20.3153 101.167 20.844 101.947 20.844ZM116.674 2.228C118.304 2.228 119.612 2.566 120.6 3.242C121.588 3.918 122.082 4.84533 122.082 6.024C122.082 7.22 121.545 8.26 120.47 9.144C119.413 10.0107 118.061 10.626 116.414 10.99C118.321 11.0593 119.907 11.5273 121.172 12.394C122.438 13.2607 123.07 14.448 123.07 15.956C123.07 17.0653 122.724 18.0273 122.03 18.842C121.337 19.6567 120.41 20.2807 119.248 20.714C118.087 21.1473 116.839 21.364 115.504 21.364C114.014 21.364 112.774 21.078 111.786 20.506C111.353 20.246 111.024 19.9427 110.798 19.596C110.59 19.2493 110.486 18.8853 110.486 18.504C110.486 17.9667 110.668 17.5333 111.032 17.204C111.396 16.8573 111.882 16.684 112.488 16.684C113.078 16.684 113.563 16.8487 113.944 17.178C114.343 17.5073 114.542 17.9493 114.542 18.504C114.542 18.972 114.395 19.3707 114.1 19.7C113.806 20.012 113.433 20.2287 112.982 20.35C113.138 20.4713 113.398 20.584 113.762 20.688C114.144 20.792 114.56 20.844 115.01 20.844C116.345 20.844 117.376 20.3847 118.104 19.466C118.832 18.5473 119.196 17.36 119.196 15.904C119.196 14.5693 118.902 13.486 118.312 12.654C117.723 11.822 116.926 11.3627 115.92 11.276C115.868 11.3107 115.764 11.3713 115.608 11.458C115.452 11.5447 115.305 11.614 115.166 11.666C115.045 11.7007 114.924 11.718 114.802 11.718C114.646 11.718 114.516 11.6833 114.412 11.614C114.326 11.5447 114.282 11.4493 114.282 11.328C114.282 11.016 114.534 10.86 115.036 10.86C115.192 10.86 115.322 10.8687 115.426 10.886C115.53 10.9033 115.626 10.9207 115.712 10.938C117.342 10.1753 118.156 8.71067 118.156 6.544C118.156 5.348 117.922 4.42067 117.454 3.762C116.986 3.10333 116.336 2.774 115.504 2.774C115.054 2.774 114.629 2.852 114.23 3.008C113.849 3.164 113.554 3.38933 113.346 3.684C113.866 3.84 114.274 4.1 114.568 4.464C114.863 4.81067 115.01 5.20933 115.01 5.66C115.01 6.232 114.811 6.69133 114.412 7.038C114.031 7.38467 113.554 7.558 112.982 7.558C112.41 7.558 111.951 7.376 111.604 7.012C111.275 6.63067 111.11 6.17133 111.11 5.634C111.11 5.20067 111.223 4.79333 111.448 4.412C111.691 4.01333 112.02 3.67533 112.436 3.398C112.922 3.01667 113.528 2.73067 114.256 2.54C115.002 2.332 115.808 2.228 116.674 2.228ZM131.198 2.228C132.827 2.228 134.136 2.566 135.124 3.242C136.112 3.918 136.606 4.84533 136.606 6.024C136.606 7.22 136.068 8.26 134.994 9.144C133.936 10.0107 132.584 10.626 130.938 10.99C132.844 11.0593 134.43 11.5273 135.696 12.394C136.961 13.2607 137.594 14.448 137.594 15.956C137.594 17.0653 137.247 18.0273 136.554 18.842C135.86 19.6567 134.933 20.2807 133.772 20.714C132.61 21.1473 131.362 21.364 130.028 21.364C128.537 21.364 127.298 21.078 126.31 20.506C125.876 20.246 125.547 19.9427 125.322 19.596C125.114 19.2493 125.01 18.8853 125.01 18.504C125.01 17.9667 125.192 17.5333 125.556 17.204C125.92 16.8573 126.405 16.684 127.012 16.684C127.601 16.684 128.086 16.8487 128.468 17.178C128.866 17.5073 129.066 17.9493 129.066 18.504C129.066 18.972 128.918 19.3707 128.624 19.7C128.329 20.012 127.956 20.2287 127.506 20.35C127.662 20.4713 127.922 20.584 128.286 20.688C128.667 20.792 129.083 20.844 129.534 20.844C130.868 20.844 131.9 20.3847 132.628 19.466C133.356 18.5473 133.72 17.36 133.72 15.904C133.72 14.5693 133.425 13.486 132.836 12.654C132.246 11.822 131.449 11.3627 130.444 11.276C130.392 11.3107 130.288 11.3713 130.132 11.458C129.976 11.5447 129.828 11.614 129.69 11.666C129.568 11.7007 129.447 11.718 129.326 11.718C129.17 11.718 129.04 11.6833 128.936 11.614C128.849 11.5447 128.806 11.4493 128.806 11.328C128.806 11.016 129.057 10.86 129.56 10.86C129.716 10.86 129.846 10.8687 129.95 10.886C130.054 10.9033 130.149 10.9207 130.236 10.938C131.865 10.1753 132.68 8.71067 132.68 6.544C132.68 5.348 132.446 4.42067 131.978 3.762C131.51 3.10333 130.86 2.774 130.028 2.774C129.577 2.774 129.152 2.852 128.754 3.008C128.372 3.164 128.078 3.38933 127.87 3.684C128.39 3.84 128.797 4.1 129.092 4.464C129.386 4.81067 129.534 5.20933 129.534 5.66C129.534 6.232 129.334 6.69133 128.936 7.038C128.554 7.38467 128.078 7.558 127.506 7.558C126.934 7.558 126.474 7.376 126.128 7.012C125.798 6.63067 125.634 6.17133 125.634 5.634C125.634 5.20067 125.746 4.79333 125.972 4.412C126.214 4.01333 126.544 3.67533 126.96 3.398C127.445 3.01667 128.052 2.73067 128.78 2.54C129.525 2.332 130.331 2.228 131.198 2.228ZM149.569 15.046H140.183V12.888H149.569V15.046ZM164.019 3.138C162.667 5.114 161.618 6.78667 160.873 8.156C160.127 9.52533 159.547 10.964 159.131 12.472C158.715 13.98 158.515 15.6613 158.533 17.516C158.533 17.8107 158.55 18.1833 158.585 18.634C158.619 19.05 158.637 19.3533 158.637 19.544C158.637 20.0813 158.472 20.5233 158.143 20.87C157.831 21.1993 157.354 21.364 156.713 21.364C156.089 21.364 155.621 21.182 155.309 20.818C154.997 20.454 154.841 19.9947 154.841 19.44C154.841 17.984 155.179 16.4673 155.855 14.89C156.531 13.2953 157.345 11.7873 158.299 10.366C159.269 8.94467 160.448 7.35 161.835 5.582H154.373C153.662 5.582 153.133 5.738 152.787 6.05C152.457 6.34467 152.249 6.86467 152.163 7.61H151.565C151.617 7.05533 151.643 6.35333 151.643 5.504C151.643 4.65467 151.582 3.684 151.461 2.592C152.709 2.644 154.823 2.67 157.805 2.67C160.266 2.67 162.337 2.644 164.019 2.592V3.138ZM172.186 2.228C173.624 2.228 174.881 2.60067 175.956 3.346C177.048 4.09133 177.888 5.17467 178.478 6.596C179.084 8 179.388 9.68133 179.388 11.64C179.388 13.5467 179.076 15.2367 178.452 16.71C177.845 18.1833 176.987 19.3273 175.878 20.142C174.786 20.9567 173.546 21.364 172.16 21.364C170.721 21.364 169.456 20.9913 168.364 20.246C167.289 19.5007 166.448 18.426 165.842 17.022C165.252 15.6007 164.958 13.9107 164.958 11.952C164.958 10.0453 165.261 8.35533 165.868 6.882C166.492 5.40867 167.35 4.26467 168.442 3.45C169.551 2.63533 170.799 2.228 172.186 2.228ZM172.082 2.696C171.042 2.696 170.262 3.476 169.742 5.036C169.222 6.596 168.962 8.86667 168.962 11.848C168.962 14.8293 169.248 17.0827 169.82 18.608C170.409 20.1333 171.224 20.896 172.264 20.896C173.304 20.896 174.084 20.116 174.604 18.556C175.124 16.996 175.384 14.7253 175.384 11.744C175.384 8.78 175.089 6.53533 174.5 5.01C173.928 3.46733 173.122 2.696 172.082 2.696ZM191.616 15.046H182.23V12.888H191.616V15.046ZM206.065 3.138C204.713 5.114 203.665 6.78667 202.919 8.156C202.174 9.52533 201.593 10.964 201.177 12.472C200.761 13.98 200.562 15.6613 200.579 17.516C200.579 17.8107 200.597 18.1833 200.631 18.634C200.666 19.05 200.683 19.3533 200.683 19.544C200.683 20.0813 200.519 20.5233 200.189 20.87C199.877 21.1993 199.401 21.364 198.759 21.364C198.135 21.364 197.667 21.182 197.355 20.818C197.043 20.454 196.887 19.9947 196.887 19.44C196.887 17.984 197.225 16.4673 197.901 14.89C198.577 13.2953 199.392 11.7873 200.345 10.366C201.316 8.94467 202.495 7.35 203.881 5.582H196.419C195.709 5.582 195.18 5.738 194.833 6.05C194.504 6.34467 194.296 6.86467 194.209 7.61H193.611C193.663 7.05533 193.689 6.35333 193.689 5.504C193.689 4.65467 193.629 3.684 193.507 2.592C194.755 2.644 196.87 2.67 199.851 2.67C202.313 2.67 204.384 2.644 206.065 2.592V3.138ZM212.666 2.228C214.33 2.228 215.691 2.618 216.748 3.398C217.806 4.178 218.334 5.27867 218.334 6.7C218.334 7.54933 218.126 8.38133 217.71 9.196C217.294 9.99333 216.757 10.7733 216.098 11.536C215.44 12.2813 214.512 13.252 213.316 14.448C213.039 14.7427 212.554 15.2453 211.86 15.956C211.167 16.6667 210.534 17.3513 209.962 18.01H216.306C216.792 18.01 217.182 17.88 217.476 17.62C217.788 17.3427 217.988 16.8747 218.074 16.216H218.672C218.62 16.5973 218.594 17.0913 218.594 17.698C218.594 18.738 218.655 19.8387 218.776 21H211.626L208.116 20.974C207.51 20.974 207.059 20.9827 206.764 21V20.48C208.931 18.5733 210.742 16.4673 212.198 14.162C213.672 11.8393 214.408 9.46467 214.408 7.038C214.408 5.53 214.131 4.45533 213.576 3.814C213.022 3.15533 212.32 2.826 211.47 2.826C211.02 2.826 210.586 2.92133 210.17 3.112C209.772 3.28533 209.486 3.528 209.312 3.84C209.832 3.96133 210.24 4.204 210.534 4.568C210.829 4.932 210.976 5.348 210.976 5.816C210.976 6.388 210.777 6.84733 210.378 7.194C209.997 7.54067 209.529 7.714 208.974 7.714C208.385 7.714 207.917 7.532 207.57 7.168C207.241 6.78667 207.076 6.336 207.076 5.816C207.076 5.01867 207.527 4.26467 208.428 3.554C208.931 3.12067 209.546 2.79133 210.274 2.566C211.002 2.34067 211.8 2.228 212.666 2.228Z" fill="#333333"/>
</svg>
