<svg width="57" height="62" viewBox="0 0 57 62" fill="none" xmlns="http://www.w3.org/2000/svg">
<path d="M12.3042 10.2514C8.62782 9.106 5.64409 9.39828 4.56332 10.0731C4.39771 10.1765 4.28162 10.3364 4.19636 10.512C3.43372 12.0829 2.36902 15.8926 3.35288 20.566C4.29903 25.0602 9.24873 28.2854 12.2706 29.6583C12.812 29.9042 13.4368 29.8578 13.9447 29.5485C16.8616 27.7718 21.7321 24.124 22.9181 20.566C24.0977 17.0273 23.4105 12.9883 22.7859 10.9365C22.6694 10.5541 22.4257 10.2149 22.0652 10.0422C20.9572 9.51173 19.6011 9.59975 17.8339 10.0444C15.4569 10.6424 13.1103 10.5026 12.3042 10.2514Z" fill="#FEFEFE"/>
<path d="M2.30444 61H23.8262C20.7827 60.1304 14.6957 57.1522 14.6957 52.1957C14.6957 47.2391 14.6957 36.6522 14.6957 31.9783C18.2827 30.0217 24.1523 26.1087 25.1305 19.913C25.9046 15.0104 23.9349 5.23913 23.5001 1" stroke="#FEFEFE"/>
<path d="M24.0044 61H2.48265C5.52613 60.1304 11.6131 57.1522 11.6131 52.1957C11.6131 47.2391 11.6131 36.6522 11.6131 31.9783C8.02613 30.0217 2.15657 26.1087 1.17831 19.913C0.404205 15.0104 2.37396 5.23913 2.80874 1" stroke="#FEFEFE"/>
<path d="M55.5567 32.0901C55.4094 31.9236 55.2569 31.7514 55.163 31.5927C55.0996 31.4854 55.0623 31.2657 55.0263 31.0533C54.9508 30.6083 54.857 30.0546 54.4163 29.6998C54.0729 29.4234 53.6094 29.4144 53.2004 29.4065C52.9208 29.4011 52.6316 29.3954 52.4554 29.3071C52.3211 29.2398 52.1646 29.0297 52.0132 28.8264C51.7587 28.4847 51.4701 28.0973 51.0091 27.9571C50.5479 27.817 50.0926 27.9782 49.6909 28.1204C49.4521 28.205 49.2049 28.2924 49.0559 28.2736C48.8604 28.2489 48.6169 28.0926 48.3816 27.9415C48.0374 27.7205 47.6477 27.4701 47.2081 27.5085C46.6446 27.5579 46.2585 27.9657 45.9482 28.2934C45.8 28.4499 45.6468 28.6117 45.5344 28.6654C45.368 28.7451 45.1456 28.8033 44.9305 28.8596C44.5156 28.9681 44.018 29.0986 43.7518 29.4654C43.4506 29.4155 43.1561 29.4175 42.8734 29.4608C42.7359 29.1488 42.5429 28.8707 42.2893 28.654C41.7827 28.221 41.2145 28.0462 40.6456 28.1486C40.1496 28.238 39.7179 28.527 39.3748 28.8472C39.3677 28.2399 39.3151 27.8326 39.3087 27.7858C39.2757 27.542 39.0511 27.3708 38.8075 27.404C38.5636 27.437 38.3927 27.6614 38.4257 27.9053C38.4298 27.9355 38.8149 30.9182 37.5167 32.9446C36.6994 32.8146 35.873 32.9797 35.1677 33.414C34.7187 32.7688 34.0633 32.3077 33.2948 32.1043C31.5248 31.6356 29.7026 32.6946 29.2338 34.4653C29.1984 34.5991 29.1714 34.7355 29.1528 34.8723C28.3364 34.9961 27.5712 35.4077 27.0212 36.0565C26.8621 36.2441 26.8852 36.5253 27.0729 36.6844C27.2606 36.8436 27.5418 36.8204 27.7009 36.6327C28.3401 35.8788 29.3702 35.5551 30.3248 35.8078C30.8711 35.9524 31.3464 36.2676 31.6902 36.7067C31.1158 37.1667 30.7046 37.7956 30.5128 38.5202C30.4374 38.8048 30.3998 39.0918 30.3965 39.3756C29.5693 39.4735 28.8185 39.8655 28.2678 40.4576C27.4438 39.9263 26.9919 38.9754 27.1096 37.9933C27.1389 37.7489 26.9646 37.5272 26.7203 37.4979C26.476 37.4685 26.2541 37.6429 26.2249 37.8872C26.0679 39.1962 26.662 40.4642 27.7498 41.1838C27.6254 41.4167 27.5256 41.6661 27.4558 41.9298C27.137 43.1339 27.4771 44.384 28.344 45.256C27.8844 45.9196 27.6723 46.7154 27.7445 47.5295C27.773 47.8514 27.8456 48.1623 27.9571 48.4564C27.0581 49.0823 26.5492 50.153 26.647 51.2559C26.6967 51.817 26.896 52.3459 27.2253 52.7967C26.9472 53.3181 26.8251 53.909 26.8784 54.5114C26.951 55.3303 27.3381 56.0719 27.9685 56.5997C28.5275 57.0678 29.2185 57.3179 29.939 57.3179C30.0308 57.3179 30.1233 57.3138 30.2159 57.3056C31.5086 57.191 32.5667 56.3022 32.9088 55.0684C33.0443 55.0866 33.1815 55.096 33.3199 55.096C33.4118 55.096 33.5043 55.0919 33.5969 55.0837C34.4158 55.0112 35.1574 54.624 35.6852 53.9937C36.1621 53.4241 36.4118 52.7172 36.4021 51.9821C36.9995 51.781 37.5321 51.4195 37.9471 50.9238C38.5098 50.2517 38.7922 49.41 38.7511 48.5395C38.7824 48.5376 38.8137 48.536 38.8449 48.5332C40.5303 48.3839 41.7869 46.9152 41.6876 45.2371C41.7995 45.2493 41.9122 45.2568 42.0253 45.2568C42.1182 45.2568 42.2114 45.2527 42.3047 45.2444C44.021 45.0923 45.2936 43.5722 45.1415 41.8559C45.0732 41.0855 44.7201 40.3693 44.1595 39.8461C44.5124 39.4504 44.7786 38.9714 44.9206 38.4351C45.1421 37.5986 45.044 36.7155 44.6445 35.9485C44.5308 35.7302 44.2617 35.6454 44.0435 35.7591C43.8253 35.8727 43.7405 36.1418 43.8541 36.36C44.1509 36.9297 44.2237 37.5856 44.0592 38.2071C43.7608 39.3345 42.7269 40.1232 41.5722 40.1231C41.57 40.1231 41.5678 40.1229 41.5656 40.1229C41.4947 39.7317 41.3556 39.3517 41.1498 38.9978C40.6846 38.1977 39.9357 37.6265 39.0409 37.3897C39.028 37.3863 39.0149 37.3836 39.0019 37.3804C39.0129 37.2155 39.0399 37.051 39.0826 36.8897C39.2585 36.225 39.6828 35.6687 40.2772 35.3232C40.8716 34.9776 41.5649 34.8842 42.2295 35.0601C42.4089 35.1076 42.5826 35.174 42.7458 35.2576C42.9649 35.3697 43.2333 35.2829 43.3454 35.0638C43.4575 34.8448 43.3708 34.5764 43.1517 34.4643C42.9318 34.3518 42.6983 34.2625 42.4575 34.1987C41.5904 33.9692 40.6874 34.0812 39.9042 34.5116C39.5402 33.9388 39.0148 33.4848 38.3993 33.2074C38.9219 32.3021 39.1758 31.2811 39.2905 30.371C39.2916 30.3691 39.2929 30.3674 39.2941 30.3654C39.4775 30.0353 40.1063 29.1512 40.8035 29.0256C41.1085 28.9707 41.4053 29.0707 41.7104 29.3314C41.826 29.4302 41.9277 29.5668 42.0112 29.7296C41.1056 30.1615 40.4376 30.9811 40.2735 31.6758C40.0981 32.4182 40.4608 33.0219 41.1975 33.2138C41.307 33.2424 41.4152 33.2563 41.5214 33.2563C42.0273 33.2563 42.4852 32.9388 42.786 32.3624C43.0789 31.8013 43.2007 31.0455 43.109 30.3308C43.2774 30.3135 43.45 30.319 43.6229 30.3489C43.7325 30.6805 43.9895 30.9712 44.2121 31.2226C44.3594 31.389 44.5119 31.5612 44.6058 31.72C44.6692 31.8272 44.7064 32.0469 44.7425 32.2594C44.8179 32.7043 44.9118 33.258 45.3525 33.6128C45.6959 33.8892 46.1594 33.8982 46.5684 33.9061C46.8481 33.9116 47.1373 33.9172 47.3134 34.0055C47.4478 34.0728 47.6042 34.283 47.7556 34.4862C48.0102 34.8279 48.2987 35.2153 48.7597 35.3555C49.221 35.4957 49.6762 35.3344 50.0779 35.1922C50.3168 35.1076 50.5639 35.0202 50.7129 35.039C50.9084 35.0637 51.1519 35.22 51.3873 35.3712C51.7076 35.5769 52.0677 35.8081 52.4702 35.8081C52.5001 35.8081 52.5303 35.8068 52.5607 35.8041C53.1242 35.7547 53.5104 35.3469 53.8206 35.0192C53.9688 34.8628 54.122 34.7009 54.2344 34.6472C54.4008 34.5675 54.6233 34.5094 54.8384 34.4531C55.3461 34.3203 55.9779 34.1551 56.1578 33.5635C56.3376 32.9719 55.9046 32.483 55.5567 32.0901ZM30.5528 34.9462C30.3894 34.903 30.2244 34.8724 30.059 34.8538C30.0694 34.7999 30.0812 34.7462 30.0953 34.6931C30.4382 33.3975 31.7715 32.6226 33.0668 32.9655C33.6944 33.1317 34.2197 33.5323 34.546 34.0935C34.8723 34.6548 34.9605 35.3095 34.7944 35.9371C34.7834 35.9783 34.7712 36.0192 34.7581 36.0598C34.7551 36.059 34.7522 36.0579 34.7492 36.0572C33.9762 35.8525 33.1741 35.9191 32.4541 36.2411C31.9873 35.6059 31.3227 35.15 30.5528 34.9462ZM31.3742 38.7481C31.5502 38.0834 31.9744 37.5271 32.5687 37.1815C33.1632 36.836 33.8565 36.7425 34.5212 36.9185C35.1491 37.0847 35.6749 37.4685 36.0224 38.0079C35.427 38.4706 35.0007 39.1113 34.8045 39.8527C34.7384 40.1026 34.7006 40.3578 34.6911 40.6138C34.5699 40.612 34.4479 40.616 34.3254 40.6268C33.5829 40.6925 32.8901 40.9931 32.338 41.4814C31.4869 40.8579 31.1007 39.7814 31.3742 38.7481ZM34.8585 46.6422C34.7767 46.6495 34.6946 46.6525 34.6127 46.652C34.4776 45.8362 34.0611 45.1031 33.4203 44.5667C33.0194 44.231 32.5581 43.9951 32.0664 43.8679C32.1675 42.6397 33.157 41.6248 34.4041 41.5143C35.0885 41.4536 35.7564 41.6633 36.2836 42.1047C36.8108 42.546 37.1345 43.1662 37.1952 43.8511C37.3205 45.2649 36.2723 46.517 34.8585 46.6422ZM31.4231 49.7875C30.738 49.848 30.0707 49.6385 29.5436 49.1972C29.0165 48.7558 28.6927 48.1356 28.632 47.4508C28.5713 46.7659 28.781 46.0984 29.2224 45.5712C29.6637 45.0441 30.2839 44.7203 30.9688 44.6596C31.0463 44.6528 31.1235 44.6494 31.2003 44.6494C31.8028 44.6494 32.3807 44.8585 32.8482 45.25C33.3754 45.6913 33.6991 46.3115 33.7598 46.9964C33.8205 47.6813 33.6108 48.3487 33.1694 48.8759C32.7282 49.4031 32.108 49.7268 31.4231 49.7875ZM28.3172 42.1577C28.5898 41.128 29.4648 40.3825 30.5012 40.2598C30.6884 41.0008 31.12 41.6716 31.7502 42.1544C31.4298 42.6336 31.2348 43.1839 31.1822 43.7591C31.0852 43.7596 30.9878 43.7633 30.8902 43.7719C30.161 43.8365 29.4868 44.1234 28.9425 44.5914C28.3248 43.9455 28.0848 43.0355 28.3172 42.1577ZM28.383 49.2488C28.5501 49.4801 28.7471 49.6924 28.9716 49.8804C29.4399 50.2724 29.9904 50.5284 30.5755 50.6339C30.4851 50.8126 30.413 50.9991 30.3595 51.191C30.1327 51.1603 29.9024 51.1535 29.6725 51.1738C28.9579 51.2372 28.3021 51.5402 27.796 52.0352C27.6515 51.7721 27.5614 51.4817 27.5345 51.1772C27.4682 50.4281 27.7959 49.7 28.383 49.2488ZM30.1372 56.4179C29.5554 56.4693 28.9884 56.2913 28.5404 55.9164C28.0926 55.5414 27.8175 55.0145 27.766 54.4326C27.7145 53.8508 27.8926 53.2837 28.2675 52.8359C28.6425 52.388 29.1694 52.113 29.7512 52.0614C29.9179 52.0466 30.0846 52.0519 30.2485 52.0748C30.25 52.1461 30.253 52.2177 30.2593 52.2895C30.3319 53.1084 30.719 53.8501 31.3494 54.3778C31.5659 54.5591 31.8023 54.7072 32.0525 54.8213C31.8121 55.6892 31.0433 56.3376 30.1372 56.4179ZM35.0018 53.4216C34.6268 53.8694 34.0999 54.1445 33.5181 54.196C32.9362 54.2475 32.3692 54.0695 31.9213 53.6945C31.4734 53.3196 31.1984 52.7926 31.1469 52.2108C31.0972 51.6504 31.2616 51.1028 31.6095 50.6629C31.8572 50.6333 32.0983 50.5788 32.3293 50.4993C32.9562 51.5266 34.0905 52.1642 35.2949 52.1642C35.3656 52.1642 35.4366 52.1612 35.5077 52.1567C35.4793 52.6195 35.305 53.0595 35.0018 53.4216ZM37.2638 50.3517C36.8225 50.8789 36.2022 51.2026 35.5174 51.2633C34.5665 51.3475 33.6435 50.8875 33.1302 50.0995C33.397 49.9195 33.6405 49.7015 33.8529 49.4479C34.3115 48.9002 34.5832 48.2398 34.6463 47.5431C34.7433 47.5426 34.8406 47.5384 34.9372 47.5299C35.6923 47.463 36.3693 47.1567 36.9015 46.6935C37.4427 47.1297 37.7923 47.7733 37.8542 48.4722C37.9148 49.1571 37.7051 49.8245 37.2638 50.3517ZM38.7663 47.6456C38.7082 47.6508 38.6499 47.6532 38.5917 47.6539C38.39 47.0204 38.0085 46.4538 37.4939 46.0279C37.8536 45.5008 38.0696 44.8725 38.0933 44.2033C38.1142 44.2037 38.1352 44.2051 38.156 44.2051C38.8122 44.2051 39.4384 44.0163 39.9738 43.6845C40.4442 44.0643 40.7402 44.6141 40.7942 45.2233C40.9028 46.4503 39.9931 47.5368 38.7663 47.6456ZM42.226 44.3567C41.976 44.3789 41.7274 44.3591 41.4867 44.2989C41.3137 43.847 41.0369 43.4418 40.6754 43.113C41.0619 42.7037 41.3526 42.1976 41.5039 41.626C41.5576 41.4231 41.5917 41.2182 41.6084 41.0133C42.288 41.0059 42.935 40.7961 43.4803 40.4345C43.9223 40.8129 44.2022 41.3519 44.2539 41.9345C44.3627 43.1614 43.4529 44.248 42.226 44.3567ZM40.3795 39.4456C40.7251 40.04 40.8185 40.7333 40.6426 41.398C40.331 42.575 39.2242 43.3793 38.0109 43.3099C38.0105 43.3099 38.0102 43.3099 38.0099 43.3099C37.844 42.5734 37.4445 41.9144 36.8557 41.4215C36.476 41.1036 36.0422 40.876 35.5798 40.7446C35.5795 40.5217 35.6083 40.2987 35.666 40.0807C35.8419 39.416 36.2662 38.8597 36.8606 38.5141C37.4549 38.1685 38.1484 38.0752 38.8129 38.2511C39.4776 38.427 40.0339 38.8513 40.3795 39.4456ZM39.1828 35.0369C38.7211 35.4743 38.388 36.0315 38.2212 36.6617C38.1679 36.8629 38.1332 37.068 38.1166 37.274C37.6618 37.2783 37.2122 37.3728 36.7897 37.5548C36.4864 37.0764 36.0703 36.6801 35.5832 36.4006C35.61 36.3229 35.6347 36.2445 35.6557 36.1651C35.829 35.5103 35.7991 34.8341 35.5772 34.2094C36.1871 33.8121 36.9269 33.6906 37.6381 33.8788C38.2832 34.0495 38.8389 34.4681 39.1828 35.0369ZM41.9961 31.95C41.8282 32.2718 41.6352 32.4069 41.4222 32.3514C41.1938 32.2919 41.0671 32.1924 41.1408 31.8806C41.2452 31.4384 41.6757 30.9214 42.2482 30.6076C42.2844 31.0519 42.2136 31.5332 41.9961 31.95ZM55.3052 33.3043C55.2704 33.419 54.8747 33.5224 54.6129 33.5909C54.3573 33.6578 54.0929 33.7269 53.8497 33.8434C53.5885 33.9683 53.3776 34.1911 53.1736 34.4065C52.9455 34.6474 52.7096 34.8964 52.4829 34.9163C52.3469 34.9279 52.0929 34.7652 51.8687 34.6212C51.5648 34.426 51.2203 34.2048 50.8246 34.1548C50.7725 34.1482 50.7207 34.1452 50.669 34.1452C50.3648 34.1452 50.0685 34.2501 49.7805 34.3521C49.495 34.4532 49.1995 34.5577 49.0191 34.5028C48.8383 34.4479 48.6513 34.1967 48.4704 33.9538C48.2569 33.6672 48.0362 33.3709 47.7128 33.2088C47.3563 33.0301 46.9469 33.0221 46.5857 33.0151C46.3194 33.01 46.0176 33.0041 45.9114 32.9186C45.7339 32.7757 45.6766 32.4375 45.6211 32.1104C45.5715 31.8179 45.5202 31.5155 45.3728 31.2663C45.2355 31.0342 45.0544 30.8296 44.8793 30.6318C44.867 30.618 44.8542 30.6036 44.8412 30.5888L50.2861 32.2442C50.3294 32.2573 50.373 32.2635 50.4159 32.2635C50.6069 32.2635 50.7836 32.1397 50.842 31.9474C50.9136 31.712 50.7808 31.4632 50.5454 31.3916L45.1005 29.7362C45.1195 29.7312 45.1381 29.7264 45.156 29.7217C45.4116 29.6548 45.676 29.5857 45.9192 29.4693C46.1804 29.3443 46.3914 29.1216 46.5953 28.9062C46.8234 28.6653 47.0593 28.4162 47.2861 28.3963C47.4216 28.3843 47.676 28.5474 47.9001 28.6914C48.2041 28.8866 48.5487 29.1078 48.9444 29.1578C49.3032 29.203 49.6515 29.0798 49.9884 28.9605C50.274 28.8594 50.5692 28.7549 50.7499 28.8098C50.9306 28.8647 51.1177 29.1159 51.2986 29.3588C51.5121 29.6453 51.7328 29.9417 52.0562 30.1038C52.4127 30.2825 52.8221 30.2905 53.1832 30.2975C53.4495 30.3027 53.7514 30.3085 53.8576 30.394C54.035 30.5369 54.0924 30.8752 54.1478 31.2023C54.1974 31.4948 54.2487 31.7971 54.3962 32.0464C54.5334 32.2785 54.7145 32.483 54.8897 32.6808C55.069 32.8834 55.3401 33.1896 55.3052 33.3043Z" fill="#FEFEFE"/>
</svg>
