<svg width="30" height="30" fill="none" xmlns="http://www.w3.org/2000/svg"><circle cx="15" cy="15" r="8" fill="url(#paint0_linear)"/><circle cx="15" cy="15" r="14.5" stroke="url(#paint1_linear)"/><path d="M14.605 17.954a.93.93 0 01-1.368 0l-2.12-2.248a1.07 1.07 0 010-1.451.93.93 0 011.368 0l1.263 1.34c.096.1.25.1.346 0l3.42-3.628a.93.93 0 011.37 0c.18.192.283.454.283.726 0 .272-.102.533-.284.725l-4.278 4.537z" fill="#FEFEFE"/><defs><linearGradient id="paint0_linear" x1="15" y1="7" x2="15" y2="23" gradientUnits="userSpaceOnUse"><stop stop-color="#FFE159"/><stop offset="1" stop-color="#F5A55A"/></linearGradient><linearGradient id="paint1_linear" x1="15" y1="0" x2="15" y2="30" gradientUnits="userSpaceOnUse"><stop stop-color="#FFE159"/><stop offset="1" stop-color="#F5A55A"/></linearGradient></defs></svg>