<svg width="219" height="26" fill="none" xmlns="http://www.w3.org/2000/svg"><path d="M7.108 11.38h6.032v.78H7.108v6.11h-.936v-6.11H.114v-.78h6.058V5.244h.936v6.136zm19.598-8.242c-1.352 1.976-2.4 3.649-3.146 5.018a20.278 20.278 0 00-1.742 4.316c-.416 1.508-.615 3.19-.598 5.044 0 .295.017.667.052 1.118.035.416.052.72.052.91 0 .537-.165.98-.494 1.326-.312.33-.789.494-1.43.494-.624 0-1.092-.182-1.404-.546-.312-.364-.468-.823-.468-1.378 0-1.456.338-2.973 1.014-4.55a27.063 27.063 0 012.444-4.524 91.495 91.495 0 013.536-4.784H17.06c-.71 0-1.24.156-1.586.468-.33.295-.537.815-.624 1.56h-.598c.052-.555.078-1.257.078-2.106 0-.85-.06-1.82-.182-2.912 1.248.052 3.363.078 6.344.078 2.461 0 4.533-.026 6.214-.078v.546zM39.266.044c-2.133 1.56-3.753 3.397-4.862 5.512-1.093 2.115-1.639 4.559-1.639 7.332 0 2.773.547 5.217 1.639 7.332 1.109 2.115 2.73 3.952 4.861 5.512l.39-.312c-1.16-1.837-2.002-3.744-2.522-5.72-.52-1.993-.78-4.264-.78-6.812 0-2.53.26-4.801.78-6.812a20.503 20.503 0 012.523-5.72l-.39-.312zm8.21 2.184c2.132 0 3.778.745 4.94 2.236 1.161 1.49 1.742 3.649 1.742 6.474 0 2.08-.338 3.909-1.014 5.486-.676 1.577-1.612 2.8-2.808 3.666-1.196.85-2.566 1.274-4.108 1.274-1.335 0-2.436-.251-3.302-.754a3.213 3.213 0 01-1.04-.884 2.17 2.17 0 01-.39-1.248c0-.572.19-1.04.572-1.404.398-.364.91-.546 1.534-.546.59 0 1.057.173 1.404.52.364.33.546.78.546 1.352 0 .416-.139.815-.416 1.196-.278.364-.676.624-1.196.78.242.173.546.303.91.39.364.087.72.13 1.066.13 1.265 0 2.296-.72 3.094-2.158.814-1.456 1.222-3.909 1.222-7.358v-.364c-.624 2.15-2.02 3.224-4.186 3.224a5.307 5.307 0 01-2.574-.65c-.798-.433-1.448-1.083-1.95-1.95-.486-.884-.728-1.941-.728-3.172 0-1.335.286-2.47.858-3.406a5.524 5.524 0 012.392-2.106c1.005-.485 2.15-.728 3.432-.728zm-.442 11.336c.624 0 1.248-.312 1.872-.936.624-.624 1.057-1.647 1.3-3.068-.19-4.541-1.144-6.812-2.86-6.812-.798 0-1.439.46-1.924 1.378-.468.901-.702 2.331-.702 4.29 0 1.75.2 3.05.598 3.9.416.832.988 1.248 1.716 1.248zm15.82 4.888c0 .555.051.97.155 1.248.122.277.312.468.572.572.26.104.642.165 1.144.182V21l-.598-.026a129.427 129.427 0 00-3.094-.078c-.485 0-1.716.026-3.692.078l-.78.026v-.546c.676-.017 1.188-.087 1.534-.208.364-.139.624-.381.78-.728.156-.347.234-.858.234-1.534V6.492c0-.607-.086-1.049-.26-1.326-.156-.277-.433-.46-.832-.546-.381-.104-.97-.156-1.768-.156v-.546c1.543-.19 2.826-.416 3.848-.676a24.477 24.477 0 002.756-.91v16.12zm9.402-16.224c1.664 0 3.025.39 4.082 1.17 1.058.78 1.586 1.88 1.586 3.302 0 .85-.208 1.681-.624 2.496a12.292 12.292 0 01-1.612 2.34c-.658.745-1.586 1.716-2.782 2.912-.277.295-.762.797-1.456 1.508a48.42 48.42 0 00-1.898 2.054h6.344c.486 0 .876-.13 1.17-.39.312-.277.512-.745.598-1.404h.598c-.052.381-.078.875-.078 1.482 0 1.04.06 2.14.182 3.302h-7.15l-3.51-.026c-.606 0-1.057.009-1.352.026v-.52c2.167-1.907 3.978-4.013 5.434-6.318 1.474-2.323 2.21-4.697 2.21-7.124 0-1.508-.277-2.583-.832-3.224-.554-.659-1.256-.988-2.106-.988-.45 0-.884.095-1.3.286-.398.173-.684.416-.858.728.52.121.928.364 1.222.728.295.364.442.78.442 1.248 0 .572-.2 1.031-.598 1.378-.381.347-.85.52-1.404.52-.59 0-1.057-.182-1.404-.546a2.002 2.002 0 01-.494-1.352c0-.797.45-1.551 1.352-2.262.503-.433 1.118-.763 1.846-.988a8.059 8.059 0 012.392-.338zM80.321.044c2.132 1.56 3.744 3.397 4.836 5.512 1.11 2.115 1.664 4.559 1.664 7.332 0 2.773-.555 5.217-1.664 7.332-1.092 2.115-2.704 3.952-4.836 5.512l-.39-.312c1.161-1.837 2.002-3.744 2.522-5.72.52-1.993.78-4.264.78-6.812 0-2.53-.269-4.801-.806-6.812A19.94 19.94 0 0079.93.356l.39-.312zm22.77 9.308c.97 0 1.863.217 2.678.65.814.433 1.464 1.083 1.95 1.95.502.867.754 1.924.754 3.172 0 1.335-.295 2.47-.884 3.406a5.53 5.53 0 01-2.366 2.132c-.988.468-2.106.702-3.354.702-2.236 0-3.926-.728-5.07-2.184-1.127-1.473-1.69-3.623-1.69-6.448 0-2.132.329-3.987.988-5.564.676-1.577 1.62-2.79 2.834-3.64 1.213-.867 2.626-1.3 4.238-1.3 1.3 0 2.348.251 3.146.754.433.26.78.572 1.04.936.26.364.39.763.39 1.196 0 .555-.2 1.023-.598 1.404-.382.364-.876.546-1.482.546-.59 0-1.066-.165-1.43-.494-.364-.347-.546-.789-.546-1.326 0-.468.138-.875.416-1.222.277-.364.676-.633 1.196-.806a2.582 2.582 0 00-.91-.39 4.495 4.495 0 00-1.04-.13c-1.3 0-2.34.728-3.12 2.184-.78 1.439-1.18 3.935-1.196 7.488.329-1.057.858-1.82 1.586-2.288.728-.485 1.551-.728 2.47-.728zm-1.144 11.492c.762 0 1.386-.45 1.872-1.352.485-.919.728-2.349.728-4.29 0-1.768-.208-3.068-.624-3.9-.416-.85-.988-1.274-1.716-1.274-.624 0-1.248.295-1.872.884-.624.59-1.05 1.56-1.274 2.912.086 2.565.39 4.377.91 5.434.537 1.057 1.196 1.586 1.976 1.586zm14.727-18.616c1.63 0 2.938.338 3.926 1.014.988.676 1.482 1.603 1.482 2.782 0 1.196-.537 2.236-1.612 3.12-1.057.867-2.409 1.482-4.056 1.846 1.907.07 3.493.537 4.758 1.404 1.266.867 1.898 2.054 1.898 3.562 0 1.11-.346 2.071-1.04 2.886-.693.815-1.62 1.439-2.782 1.872-1.161.433-2.409.65-3.744.65-1.49 0-2.73-.286-3.718-.858-.433-.26-.762-.563-.988-.91a2.091 2.091 0 01-.312-1.092c0-.537.182-.97.546-1.3.364-.347.85-.52 1.456-.52.59 0 1.075.165 1.456.494.399.33.598.771.598 1.326 0 .468-.147.867-.442 1.196a2.331 2.331 0 01-1.118.65c.156.121.416.234.78.338a4.74 4.74 0 001.248.156c1.335 0 2.366-.46 3.094-1.378.728-.919 1.092-2.106 1.092-3.562 0-1.335-.294-2.418-.884-3.25-.589-.832-1.386-1.291-2.392-1.378a5.474 5.474 0 01-.312.182 3.29 3.29 0 01-.442.208 1.313 1.313 0 01-.364.052.689.689 0 01-.39-.104.348.348 0 01-.13-.286c0-.312.252-.468.754-.468.156 0 .286.009.39.026.104.017.2.035.286.052 1.63-.763 2.444-2.227 2.444-4.394 0-1.196-.234-2.123-.702-2.782-.468-.659-1.118-.988-1.95-.988-.45 0-.875.078-1.274.234a1.956 1.956 0 00-.884.676c.52.156.928.416 1.222.78.295.347.442.745.442 1.196 0 .572-.199 1.031-.598 1.378-.381.347-.858.52-1.43.52s-1.031-.182-1.378-.546c-.329-.381-.494-.84-.494-1.378 0-.433.113-.84.338-1.222.243-.399.572-.737.988-1.014.486-.381 1.092-.667 1.82-.858a8.974 8.974 0 012.418-.312zm14.524 0c1.629 0 2.938.338 3.926 1.014.988.676 1.482 1.603 1.482 2.782 0 1.196-.538 2.236-1.612 3.12-1.058.867-2.41 1.482-4.056 1.846 1.906.07 3.492.537 4.758 1.404 1.265.867 1.898 2.054 1.898 3.562 0 1.11-.347 2.071-1.04 2.886-.694.815-1.621 1.439-2.782 1.872-1.162.433-2.41.65-3.744.65-1.491 0-2.73-.286-3.718-.858-.434-.26-.763-.563-.988-.91a2.091 2.091 0 01-.312-1.092c0-.537.182-.97.546-1.3.364-.347.849-.52 1.456-.52.589 0 1.074.165 1.456.494.398.33.598.771.598 1.326 0 .468-.148.867-.442 1.196a2.34 2.34 0 01-1.118.65c.156.121.416.234.78.338.381.104.797.156 1.248.156 1.334 0 2.366-.46 3.094-1.378.728-.919 1.092-2.106 1.092-3.562 0-1.335-.295-2.418-.884-3.25-.59-.832-1.387-1.291-2.392-1.378a5.474 5.474 0 01-.312.182 3.348 3.348 0 01-.442.208 1.324 1.324 0 01-.364.052.689.689 0 01-.39-.104.345.345 0 01-.13-.286c0-.312.251-.468.754-.468.156 0 .286.009.39.026.104.017.199.035.286.052 1.629-.763 2.444-2.227 2.444-4.394 0-1.196-.234-2.123-.702-2.782-.468-.659-1.118-.988-1.95-.988a3.46 3.46 0 00-1.274.234 1.95 1.95 0 00-.884.676c.52.156.927.416 1.222.78.294.347.442.745.442 1.196 0 .572-.2 1.031-.598 1.378-.382.347-.858.52-1.43.52s-1.032-.182-1.378-.546c-.33-.381-.494-.84-.494-1.378 0-.433.112-.84.338-1.222a3.23 3.23 0 01.988-1.014c.485-.381 1.092-.667 1.82-.858a8.963 8.963 0 012.418-.312zm18.371 12.818h-9.386v-2.158h9.386v2.158zm14.45-11.908c-1.352 1.976-2.401 3.649-3.146 5.018a20.242 20.242 0 00-1.742 4.316c-.416 1.508-.616 3.19-.598 5.044 0 .295.017.667.052 1.118.034.416.052.72.052.91 0 .537-.165.98-.494 1.326-.312.33-.789.494-1.43.494-.624 0-1.092-.182-1.404-.546-.312-.364-.468-.823-.468-1.378 0-1.456.338-2.973 1.014-4.55a27.012 27.012 0 012.444-4.524 91.006 91.006 0 013.536-4.784h-7.462c-.711 0-1.24.156-1.586.468-.33.295-.538.815-.624 1.56h-.598c.052-.555.078-1.257.078-2.106 0-.85-.061-1.82-.182-2.912 1.248.052 3.362.078 6.344.078 2.461 0 4.532-.026 6.214-.078v.546zm8.167-.91c1.438 0 2.695.373 3.77 1.118 1.092.745 1.932 1.829 2.522 3.25.606 1.404.91 3.085.91 5.044 0 1.907-.312 3.597-.936 5.07-.607 1.473-1.465 2.617-2.574 3.432-1.092.815-2.332 1.222-3.718 1.222-1.439 0-2.704-.373-3.796-1.118-1.075-.745-1.916-1.82-2.522-3.224-.59-1.421-.884-3.111-.884-5.07 0-1.907.303-3.597.91-5.07.624-1.473 1.482-2.617 2.574-3.432a6.168 6.168 0 013.744-1.222zm-.104.468c-1.04 0-1.82.78-2.34 2.34-.52 1.56-.78 3.83-.78 6.812 0 2.981.286 5.235.858 6.76.589 1.525 1.404 2.288 2.444 2.288s1.82-.78 2.34-2.34c.52-1.56.78-3.83.78-6.812 0-2.964-.295-5.209-.884-6.734-.572-1.543-1.378-2.314-2.418-2.314zm19.534 12.35h-9.386v-2.158h9.386v2.158zm14.449-11.908c-1.352 1.976-2.4 3.649-3.146 5.018a20.294 20.294 0 00-1.742 4.316c-.416 1.508-.615 3.19-.598 5.044 0 .295.018.667.052 1.118.035.416.052.72.052.91 0 .537-.164.98-.494 1.326-.312.33-.788.494-1.43.494-.624 0-1.092-.182-1.404-.546-.312-.364-.468-.823-.468-1.378 0-1.456.338-2.973 1.014-4.55a27.085 27.085 0 012.444-4.524 92.014 92.014 0 013.536-4.784h-7.462c-.71 0-1.239.156-1.586.468-.329.295-.537.815-.624 1.56h-.598c.052-.555.078-1.257.078-2.106 0-.85-.06-1.82-.182-2.912 1.248.052 3.363.078 6.344.078 2.462 0 4.533-.026 6.214-.078v.546zm6.601-.91c1.664 0 3.025.39 4.082 1.17 1.058.78 1.586 1.88 1.586 3.302 0 .85-.208 1.681-.624 2.496a12.278 12.278 0 01-1.612 2.34c-.658.745-1.586 1.716-2.782 2.912-.277.295-.762.797-1.456 1.508a48.62 48.62 0 00-1.898 2.054h6.344c.486 0 .876-.13 1.17-.39.312-.277.512-.745.598-1.404h.598c-.052.381-.078.875-.078 1.482 0 1.04.061 2.14.182 3.302h-7.15l-3.51-.026c-.606 0-1.057.009-1.352.026v-.52c2.167-1.907 3.978-4.013 5.434-6.318 1.474-2.323 2.21-4.697 2.21-7.124 0-1.508-.277-2.583-.832-3.224-.554-.659-1.256-.988-2.106-.988-.45 0-.884.095-1.3.286-.398.173-.684.416-.858.728.52.121.928.364 1.222.728.295.364.442.78.442 1.248 0 .572-.199 1.031-.598 1.378-.381.347-.849.52-1.404.52-.589 0-1.057-.182-1.404-.546a2.003 2.003 0 01-.494-1.352c0-.797.451-1.551 1.352-2.262.503-.433 1.118-.763 1.846-.988a8.061 8.061 0 012.392-.338z" fill="#333"/></svg>