<svg width="100" height="100" fill="none" xmlns="http://www.w3.org/2000/svg"><path d="M50 100c27.569 0 50-22.43 50-50 0-4.759-.664-9.448-1.98-13.94a4.163 4.163 0 00-5.168-2.828 4.165 4.165 0 00-2.83 5.168A41.373 41.373 0 0191.668 50c0 22.975-18.692 41.667-41.667 41.667S8.333 72.975 8.333 50 27.025 8.333 50 8.333c8.35 0 16.383 2.442 23.231 7.059a4.167 4.167 0 004.659-6.91C69.66 2.935 60.017 0 50 0 22.431 0 0 22.43 0 50s22.431 50 50 50z" fill="url(#paint0_linear)"/><path d="M92.887 9.554L50 52.439 36.28 38.721a4.167 4.167 0 00-5.893 5.892l16.667 16.666A4.149 4.149 0 0050 62.5a4.149 4.149 0 002.946-1.22l45.833-45.833a4.167 4.167 0 00-5.892-5.892z" fill="url(#paint1_linear)"/><defs><linearGradient id="paint0_linear" x1="50" y1="0" x2="50" y2="100" gradientUnits="userSpaceOnUse"><stop stop-color="#FFE159"/><stop offset="1" stop-color="#F5A55A"/></linearGradient><linearGradient id="paint1_linear" x1="64.583" y1="8.334" x2="64.583" y2="62.5" gradientUnits="userSpaceOnUse"><stop stop-color="#FFE159"/><stop offset="1" stop-color="#F5A55A"/></linearGradient></defs></svg>